<svg xmlns="http://www.w3.org/2000/svg" viewBox="0 0 119.66 40"><defs><style>.cls-1{fill:#2a2b27;}.cls-2{fill:#fff;}</style></defs><title>資產 4</title><g id="圖層_2" data-name="圖層 2"><g id="圖層_1-2" data-name="圖層 1"><path class="cls-1" d="M8.44,39.13l-.9,0A11.52,11.52,0,0,1,5.67,39,5.89,5.89,0,0,1,4,38.4a5.16,5.16,0,0,1-1.39-1,5.19,5.19,0,0,1-1-1.4,5.79,5.79,0,0,1-.55-1.66,12.1,12.1,0,0,1-.16-1.87c0-.21,0-.92,0-.92V8.44s0-.69,0-.89a12,12,0,0,1,.16-1.87A5.69,5.69,0,0,1,1.6,4a5.06,5.06,0,0,1,1-1.4A5.52,5.52,0,0,1,4,1.6a5.79,5.79,0,0,1,1.66-.55A12.1,12.1,0,0,1,7.54.89H112.13a12.08,12.08,0,0,1,1.86.16,6,6,0,0,1,1.67.55A5.49,5.49,0,0,1,118.07,4a5.92,5.92,0,0,1,.54,1.65,13.68,13.68,0,0,1,.17,1.88v.89c0,.38,0,.74,0,1.1V30.46c0,.37,0,.72,0,1.08v.93a13.12,13.12,0,0,1-.17,1.85,5.85,5.85,0,0,1-.54,1.67,5.42,5.42,0,0,1-1,1.39,5.19,5.19,0,0,1-1.4,1A5.59,5.59,0,0,1,114,39a11.52,11.52,0,0,1-1.87.16l-.9,0H8.44Z"/><path class="cls-1" d="M110.13,0H7.52a13.51,13.51,0,0,0-2,.18,6.74,6.74,0,0,0-1.9.63A6.3,6.3,0,0,0,2,2,6.07,6.07,0,0,0,.82,3.62a6.74,6.74,0,0,0-.63,1.9,12.18,12.18,0,0,0-.17,2c0,.31,0,.62,0,.92V31.56c0,.31,0,.61,0,.92a12.18,12.18,0,0,0,.17,2,6.8,6.8,0,0,0,.63,1.91A6.19,6.19,0,0,0,2,38a6.07,6.07,0,0,0,1.62,1.18,6.74,6.74,0,0,0,1.9.63,13.51,13.51,0,0,0,2,.18H112.14a13.39,13.39,0,0,0,2-.18,6.91,6.91,0,0,0,1.91-.63A6.24,6.24,0,0,0,117.67,38a6.68,6.68,0,0,0,1.18-1.61,7.12,7.12,0,0,0,.62-1.91,13.39,13.39,0,0,0,.18-2c0-.31,0-.61,0-.92V8.44c0-.3,0-.61,0-.92a13.39,13.39,0,0,0-.18-2,7.05,7.05,0,0,0-.62-1.9A6.54,6.54,0,0,0,117.67,2,6.47,6.47,0,0,0,116.05.82a6.91,6.91,0,0,0-1.91-.63,13.39,13.39,0,0,0-2-.18h-2Z"/><path class="cls-2" d="M24.77,19.34a5,5,0,0,1,2.36-4.16,5.06,5.06,0,0,0-4-2.15c-1.67-.18-3.3,1-4.16,1s-2.19-1-3.61-1a5.33,5.33,0,0,0-4.47,2.73c-1.93,3.35-.49,8.27,1.36,11,.93,1.32,2,2.8,3.43,2.75s1.9-.88,3.58-.88,2.14.88,3.59.85,2.43-1.33,3.32-2.67a11.23,11.23,0,0,0,1.52-3.09A4.8,4.8,0,0,1,24.77,19.34Z"/><path class="cls-2" d="M22,11.25a4.92,4.92,0,0,0,1.11-3.49,4.9,4.9,0,0,0-3.21,1.66,4.65,4.65,0,0,0-1.14,3.36A4.11,4.11,0,0,0,22,11.25Z"/><path class="cls-2" d="M42.3,26.18H37.57l-1.14,3.35h-2l4.48-12.42H41l4.49,12.42h-2Zm-4.24-1.55h3.75L40,19.18h-.05Z"/><path class="cls-2" d="M55.16,25c0,2.81-1.51,4.62-3.78,4.62A3.08,3.08,0,0,1,48.53,28h0v4.49H46.63v-12h1.8V22h0a3.22,3.22,0,0,1,2.89-1.6C53.65,20.38,55.16,22.2,55.16,25Zm-1.91,0c0-1.84-1-3-2.39-3s-2.38,1.23-2.38,3,1,3,2.38,3S53.25,26.86,53.25,25Z"/><path class="cls-2" d="M65.12,25c0,2.81-1.5,4.62-3.77,4.62A3.07,3.07,0,0,1,58.5,28h0v4.49H56.6v-12h1.8V22h0a3.22,3.22,0,0,1,2.88-1.6C63.61,20.38,65.12,22.2,65.12,25Zm-1.91,0c0-1.84-.94-3-2.39-3s-2.37,1.23-2.37,3,.95,3,2.37,3S63.21,26.86,63.21,25Z"/><path class="cls-2" d="M71.71,26.07c.14,1.23,1.33,2,3,2s2.69-.81,2.69-1.92-.68-1.54-2.29-1.93l-1.61-.39c-2.28-.55-3.33-1.62-3.33-3.35,0-2.14,1.86-3.61,4.51-3.61s4.43,1.47,4.49,3.61H77.26c-.11-1.24-1.14-2-2.63-2s-2.52.76-2.52,1.86c0,.88.65,1.4,2.25,1.79l1.37.34c2.55.6,3.61,1.62,3.61,3.44,0,2.32-1.86,3.78-4.8,3.78-2.75,0-4.61-1.42-4.73-3.67Z"/><path class="cls-2" d="M83.35,18.34v2.14h1.72V22H83.35v5c0,.78.34,1.14,1.1,1.14a4.84,4.84,0,0,0,.61,0V29.5a5.35,5.35,0,0,1-1,.08c-1.84,0-2.55-.68-2.55-2.44V22H80.16V20.48h1.32V18.34Z"/><path class="cls-2" d="M86.06,25c0-2.85,1.68-4.64,4.3-4.64s4.29,1.79,4.29,4.64S93,29.64,90.36,29.64,86.06,27.86,86.06,25Zm6.7,0c0-2-.9-3.11-2.4-3.11S88,23.06,88,25s.89,3.1,2.4,3.1S92.76,27,92.76,25Z"/><path class="cls-2" d="M96.19,20.48H98V22h0a2.16,2.16,0,0,1,2.18-1.64,3.17,3.17,0,0,1,.64.07v1.74a2.69,2.69,0,0,0-.84-.11A1.87,1.87,0,0,0,98,24.16v5.37H96.19Z"/><path class="cls-2" d="M109.38,26.87c-.25,1.65-1.85,2.77-3.89,2.77-2.64,0-4.27-1.76-4.27-4.59s1.64-4.68,4.19-4.68,4.08,1.72,4.08,4.46v.64h-6.4v.11a2.37,2.37,0,0,0,2.44,2.57,2,2,0,0,0,2.09-1.28Zm-6.28-2.7h4.53a2.18,2.18,0,0,0-2.22-2.3A2.3,2.3,0,0,0,103.1,24.17Z"/><path class="cls-2" d="M37.83,7.77a2.63,2.63,0,0,1,2.8,3c0,1.91-1,3-2.8,3H35.67v-6ZM36.6,12.89h1.12a1.88,1.88,0,0,0,2-2.15,1.88,1.88,0,0,0-2-2.13H36.6Z"/><path class="cls-2" d="M41.68,11.48a2.13,2.13,0,1,1,4.25,0,2.13,2.13,0,1,1-4.25,0Zm3.33,0c0-1-.43-1.55-1.2-1.55s-1.21.57-1.21,1.55S43,13,43.81,13,45,12.46,45,11.48Z"/><path class="cls-2" d="M51.57,13.73h-.92l-.93-3.31h-.07l-.93,3.31h-.91l-1.24-4.5h.9l.81,3.44h.06l.93-3.44h.85l.93,3.44h.07l.8-3.44h.89Z"/><path class="cls-2" d="M53.85,9.23h.86V10h.07a1.34,1.34,0,0,1,1.34-.81,1.47,1.47,0,0,1,1.56,1.68v2.91h-.89V11c0-.72-.32-1.08-1-1.08a1,1,0,0,0-1.08,1.14v2.63h-.89Z"/><path class="cls-2" d="M59.09,7.47H60v6.26h-.89Z"/><path class="cls-2" d="M61.22,11.48a2.13,2.13,0,1,1,4.25,0,2.13,2.13,0,1,1-4.25,0Zm3.33,0c0-1-.44-1.55-1.21-1.55s-1.2.57-1.2,1.55S62.57,13,63.34,13,64.55,12.46,64.55,11.48Z"/><path class="cls-2" d="M66.4,12.46c0-.81.6-1.28,1.68-1.34l1.22-.07v-.39c0-.48-.32-.75-.93-.75s-.84.18-.93.5h-.87c.1-.77.82-1.27,1.84-1.27s1.77.57,1.77,1.52v3.07h-.86V13.1h-.07a1.51,1.51,0,0,1-1.35.71A1.36,1.36,0,0,1,66.4,12.46Zm2.9-.38V11.7l-1.1.07c-.62,0-.91.25-.91.65s.36.64.84.64A1.07,1.07,0,0,0,69.3,12.08Z"/><path class="cls-2" d="M71.35,11.48c0-1.42.73-2.32,1.87-2.32A1.49,1.49,0,0,1,74.6,10h.06V7.47h.89v6.26H74.7V13h-.07a1.57,1.57,0,0,1-1.41.79C72.07,13.81,71.35,12.91,71.35,11.48Zm.92,0c0,1,.45,1.53,1.2,1.53s1.21-.58,1.21-1.53S74.21,10,73.47,10,72.27,10.53,72.27,11.48Z"/><path class="cls-2" d="M79.23,11.48a2.13,2.13,0,1,1,4.25,0,2.13,2.13,0,1,1-4.25,0Zm3.33,0c0-1-.44-1.55-1.2-1.55s-1.21.57-1.21,1.55S80.58,13,81.36,13,82.56,12.46,82.56,11.48Z"/><path class="cls-2" d="M84.67,9.23h.85V10h.07a1.36,1.36,0,0,1,1.35-.81,1.47,1.47,0,0,1,1.55,1.68v2.91h-.88V11c0-.72-.32-1.08-1-1.08a1,1,0,0,0-1.07,1.14v2.63h-.89Z"/><path class="cls-2" d="M93.52,8.11V9.25h1V10h-1v2.32c0,.47.19.67.63.67a1.83,1.83,0,0,0,.34,0v.74a2.36,2.36,0,0,1-.48,0c-1,0-1.38-.35-1.38-1.22V10h-.72V9.25h.72V8.11Z"/><path class="cls-2" d="M95.7,7.47h.89V10h.07A1.37,1.37,0,0,1,98,9.15a1.48,1.48,0,0,1,1.55,1.68v2.9h-.89V11.05c0-.72-.33-1.09-1-1.09a1.06,1.06,0,0,0-1.14,1.14v2.63H95.7Z"/><path class="cls-2" d="M104.76,12.52a1.83,1.83,0,0,1-2,1.3,2,2,0,0,1-2.08-2.32,2.09,2.09,0,0,1,2.08-2.36c1.25,0,2,.86,2,2.27v.31h-3.17v0a1.18,1.18,0,0,0,1.19,1.29,1.1,1.1,0,0,0,1.08-.54Zm-3.12-1.45h2.27A1.09,1.09,0,0,0,102.8,9.9,1.14,1.14,0,0,0,101.64,11.07Z"/></g></g></svg>