<svg xmlns="http://www.w3.org/2000/svg" xmlns:xlink="http://www.w3.org/1999/xlink" viewBox="0 0 119.66 40"><defs><style>.cls-1{fill:#2a2b27;}.cls-2,.cls-9{fill:#fff;}.cls-3{fill:url(#linear-gradient);}.cls-4{fill:url(#linear-gradient-2);}.cls-5{fill:url(#linear-gradient-3);}.cls-6{fill:url(#linear-gradient-4);}.cls-7,.cls-8{fill:#040000;}.cls-7{opacity:0.2;}.cls-7,.cls-8,.cls-9{isolation:isolate;}.cls-8{opacity:0.12;}.cls-9{opacity:0.25;}</style><linearGradient id="linear-gradient" x1="20.13" y1="-986.49" x2="5.72" y2="-1000.9" gradientTransform="matrix(1, 0, 0, -1, 0, -976.59)" gradientUnits="userSpaceOnUse"><stop offset="0" stop-color="#3694d2"/><stop offset="0.01" stop-color="#3795d3"/><stop offset="0.26" stop-color="#31b3e8"/><stop offset="0.51" stop-color="#42bfe7"/><stop offset="0.76" stop-color="#54c1df"/><stop offset="1" stop-color="#5ac2de"/></linearGradient><linearGradient id="linear-gradient-2" x1="30.47" y1="-996.19" x2="9.68" y2="-996.19" gradientTransform="matrix(1, 0, 0, -1, 0, -976.59)" gradientUnits="userSpaceOnUse"><stop offset="0" stop-color="#f5d824"/><stop offset="0.41" stop-color="#f5b819"/><stop offset="0.78" stop-color="#f5a118"/><stop offset="1" stop-color="#f3981a"/></linearGradient><linearGradient id="linear-gradient-3" x1="22.73" y1="-998.16" x2="3.18" y2="-1017.71" gradientTransform="matrix(1, 0, 0, -1, 0, -976.59)" gradientUnits="userSpaceOnUse"><stop offset="0" stop-color="#e84045"/><stop offset="1" stop-color="#b7195d"/></linearGradient><linearGradient id="linear-gradient-4" x1="7.67" y1="-979.16" x2="16.4" y2="-987.89" gradientTransform="matrix(1, 0, 0, -1, 0, -976.59)" gradientUnits="userSpaceOnUse"><stop offset="0" stop-color="#359a6e"/><stop offset="0.07" stop-color="#31a06e"/><stop offset="0.48" stop-color="#45b46f"/><stop offset="0.8" stop-color="#5bb86d"/><stop offset="1" stop-color="#62ba6c"/></linearGradient></defs><title>資產 3</title><g id="圖層_2" data-name="圖層 2"><g id="圖層_1-2" data-name="圖層 1"><path class="cls-1" d="M8.44,39.13l-.9,0A11.52,11.52,0,0,1,5.67,39,5.89,5.89,0,0,1,4,38.4a5.16,5.16,0,0,1-1.39-1,5.19,5.19,0,0,1-1-1.4,5.79,5.79,0,0,1-.55-1.66,12.1,12.1,0,0,1-.16-1.87c0-.21,0-.92,0-.92V8.44s0-.69,0-.89a12,12,0,0,1,.16-1.87A5.69,5.69,0,0,1,1.6,4a5.06,5.06,0,0,1,1-1.4A5.52,5.52,0,0,1,4,1.6a5.79,5.79,0,0,1,1.66-.55A12.1,12.1,0,0,1,7.54.89H112.13a12.08,12.08,0,0,1,1.86.16,6,6,0,0,1,1.67.55A5.49,5.49,0,0,1,118.07,4a5.92,5.92,0,0,1,.54,1.65,13.68,13.68,0,0,1,.17,1.88v.89c0,.38,0,.74,0,1.1V30.46c0,.37,0,.72,0,1.08v.93a13.12,13.12,0,0,1-.17,1.85,5.85,5.85,0,0,1-.54,1.67,5.42,5.42,0,0,1-1,1.39,5.19,5.19,0,0,1-1.4,1A5.59,5.59,0,0,1,114,39a11.52,11.52,0,0,1-1.87.16l-.9,0H8.44Z"/><path class="cls-1" d="M110.13,0H7.52a13.51,13.51,0,0,0-2,.18,6.74,6.74,0,0,0-1.9.63A6.3,6.3,0,0,0,2,2,6.07,6.07,0,0,0,.82,3.62a6.74,6.74,0,0,0-.63,1.9,12.18,12.18,0,0,0-.17,2c0,.31,0,.62,0,.92V31.56c0,.31,0,.61,0,.92a12.18,12.18,0,0,0,.17,2,6.8,6.8,0,0,0,.63,1.91A6.19,6.19,0,0,0,2,38a6.07,6.07,0,0,0,1.62,1.18,6.74,6.74,0,0,0,1.9.63,13.51,13.51,0,0,0,2,.18H112.14a13.39,13.39,0,0,0,2-.18,6.91,6.91,0,0,0,1.91-.63A6.24,6.24,0,0,0,117.67,38a6.68,6.68,0,0,0,1.18-1.61,7.12,7.12,0,0,0,.62-1.91,13.39,13.39,0,0,0,.18-2c0-.31,0-.61,0-.92V8.44c0-.3,0-.61,0-.92a13.39,13.39,0,0,0-.18-2,7.05,7.05,0,0,0-.62-1.9A6.54,6.54,0,0,0,117.67,2,6.47,6.47,0,0,0,116.05.82a6.91,6.91,0,0,0-1.91-.63,13.39,13.39,0,0,0-2-.18h-2Z"/><path class="cls-2" d="M42.14,11.21a2.3,2.3,0,0,1-.64,1.72,2.51,2.51,0,0,1-1.89.77A2.66,2.66,0,0,1,36.93,11a2.66,2.66,0,0,1,2.68-2.7,2.5,2.5,0,0,1,1,.22,2,2,0,0,1,.81.57L41,9.56A1.73,1.73,0,0,0,39.61,9a2,2,0,0,0-2,2.06,2,2,0,0,0,2,2.05,2,2,0,0,0,1.44-.57,1.63,1.63,0,0,0,.43-1.05H39.61v-.61H42.1A1.69,1.69,0,0,1,42.14,11.21Z"/><path class="cls-2" d="M46.1,9.06H43.75V10.7h2.12v.61H43.75V13H46.1v.63h-3V8.43h3Z"/><path class="cls-2" d="M48.89,13.58h-.66V9.06H46.79V8.43h3.54v.63H48.89Z"/><path class="cls-2" d="M52.89,13.58V8.43h.67v5.15Z"/><path class="cls-2" d="M56.49,13.58h-.66V9.06H54.39V8.43h3.54v.63H56.49Z"/><path class="cls-2" d="M64.64,12.92a2.68,2.68,0,0,1-3.78,0A2.62,2.62,0,0,1,60.1,11a2.63,2.63,0,0,1,.76-1.92,2.54,2.54,0,0,1,1.89-.78,2.51,2.51,0,0,1,1.89.79,2.78,2.78,0,0,1,0,3.82Zm-3.29-.44a2,2,0,0,0,2.8,0A2,2,0,0,0,64.72,11a2,2,0,0,0-.57-1.48,2,2,0,0,0-2.8,0A2,2,0,0,0,60.78,11,2,2,0,0,0,61.35,12.48Z"/><path class="cls-2" d="M66.33,13.58V8.43h.8l2.51,4h0l0-1v-3h.66v5.15h-.69L67,9.38h0l0,1v3.21Z"/><path class="cls-2" d="M59.94,21.1a3.66,3.66,0,1,0,3.66,3.65A3.61,3.61,0,0,0,59.94,21.1Zm0,5.87A2.22,2.22,0,1,1,62,24.75,2.12,2.12,0,0,1,59.94,27Zm-8-5.87a3.66,3.66,0,1,0,3.66,3.65A3.61,3.61,0,0,0,51.94,21.1Zm0,5.87A2.22,2.22,0,1,1,54,24.75,2.12,2.12,0,0,1,51.94,27Zm-9.52-4.75v1.55h3.71a3.19,3.19,0,0,1-.85,1.95,3.79,3.79,0,0,1-2.86,1.14,4.13,4.13,0,0,1,0-8.25,3.91,3.91,0,0,1,2.79,1.11l1.1-1.1a5.44,5.44,0,0,0-3.89-1.56,5.68,5.68,0,1,0,0,11.35,5.22,5.22,0,0,0,4-1.59,5.16,5.16,0,0,0,1.34-3.63,5.59,5.59,0,0,0-.08-1Zm38.92,1.21a3.39,3.39,0,0,0-3.13-2.33,3.47,3.47,0,0,0-3.44,3.65,3.58,3.58,0,0,0,3.62,3.66,3.65,3.65,0,0,0,3-1.62L80.19,26a2.07,2.07,0,0,1-1.8,1,1.87,1.87,0,0,1-1.77-1.11l4.89-2Zm-5,1.21a2,2,0,0,1,1.91-2.13,1.41,1.41,0,0,1,1.35.78Zm-4,3.55H74V17.45h-1.6Zm-2.63-6.27H69.7a2.52,2.52,0,0,0-1.92-.82,3.66,3.66,0,0,0,0,7.31,2.5,2.5,0,0,0,1.92-.83h.06v.52c0,1.4-.75,2.15-2,2.15A2,2,0,0,1,66,29l-1.39.58a3.47,3.47,0,0,0,3.24,2.16c1.88,0,3.47-1.11,3.47-3.81V21.32H69.76Zm-1.84,5a2.22,2.22,0,0,1,0-4.43,2.06,2.06,0,0,1,2,2.23A2,2,0,0,1,67.92,27Zm20.94-9.52H85V28.19h1.6V24.12h2.24a3.34,3.34,0,1,0,0-6.67Zm0,5.17H86.62V18.94H88.9a1.84,1.84,0,1,1,0,3.68Zm9.91-1.54A3,3,0,0,0,96,22.72l1.42.6a1.52,1.52,0,0,1,1.47-.79,1.54,1.54,0,0,1,1.68,1.38V24a3.62,3.62,0,0,0-1.67-.41c-1.53,0-3.1.84-3.1,2.42a2.49,2.49,0,0,0,2.67,2.36,2.27,2.27,0,0,0,2-1.05h0v.83h1.55V24.05A2.94,2.94,0,0,0,98.81,21.08ZM98.61,27c-.52,0-1.25-.27-1.25-.92,0-.82.91-1.14,1.7-1.14a2.83,2.83,0,0,1,1.46.36A1.94,1.94,0,0,1,98.61,27Zm9.1-5.65L105.87,26h-.06l-1.9-4.65h-1.73l2.86,6.5-1.63,3.62h1.67l4.41-10.12ZM93.27,28.19h1.6V17.45h-1.6Z"/><path class="cls-3" d="M10.37,8.89A1.72,1.72,0,0,0,10,10.1v19a1.7,1.7,0,0,0,.4,1.2l.06.06L21.08,19.72v-.25L10.43,8.83Z"/><path class="cls-4" d="M24.62,23.27l-3.54-3.55v-.25l3.54-3.55.08.05,4.21,2.39c1.2.68,1.2,1.79,0,2.48L24.7,23.23Z"/><path class="cls-5" d="M24.7,23.22,21.08,19.6,10.37,30.3a1.41,1.41,0,0,0,1.79.06L24.7,23.22"/><path class="cls-6" d="M24.7,16,12.16,8.84a1.4,1.4,0,0,0-1.79.05L21.08,19.6Z"/><path class="cls-7" d="M24.62,23.14,12.16,30.23a1.44,1.44,0,0,1-1.73,0h0l-.06.06h0l.06.06h0a1.44,1.44,0,0,0,1.73,0L24.7,23.22Z"/><path class="cls-8" d="M10.37,30.18A1.74,1.74,0,0,1,10,29v.13a1.7,1.7,0,0,0,.4,1.2l.06-.06Z"/><path class="cls-8" d="M28.91,20.71l-4.29,2.43.08.08,4.21-2.38a1.51,1.51,0,0,0,.9-1.24h0A1.62,1.62,0,0,1,28.91,20.71Z"/><path class="cls-9" d="M12.16,9l16.75,9.52a1.61,1.61,0,0,1,.9,1.12h0a1.51,1.51,0,0,0-.9-1.24L12.16,8.84C11,8.16,10,8.72,10,10.1v.12C10,8.85,11,8.28,12.16,9Z"/></g></g></svg>